<?xml version="1.0" encoding="UTF-8" standalone="no"?>
<svg
   xmlns:dc="http://purl.org/dc/elements/1.1/"
   xmlns:cc="http://creativecommons.org/ns#"
   xmlns:rdf="http://www.w3.org/1999/02/22-rdf-syntax-ns#"
   xmlns:svg="http://www.w3.org/2000/svg"
   xmlns="http://www.w3.org/2000/svg"
   xmlns:sodipodi="http://sodipodi.sourceforge.net/DTD/sodipodi-0.dtd"
   xmlns:inkscape="http://www.inkscape.org/namespaces/inkscape"
   inkscape:version="1.0 (4035a4fb49, 2020-05-01)"
   inkscape:export-ydpi="95"
   inkscape:export-xdpi="95"
   inkscape:export-filename="F:\OpenServer\domains\gronportfolio\image\logo.svg.2021_06_02_18_13_20.0.png"
   sodipodi:docname="logo.svg.2021_06_02_18_13_20.0.svg"
   id="svg20"
   version="1.1"
   fill="none"
   viewBox="0 0 350 44"
   height="44"
   width="350">
  <metadata
     id="metadata26">
    <rdf:RDF>
      <cc:Work
         rdf:about="">
        <dc:format>image/svg+xml</dc:format>
        <dc:type
           rdf:resource="http://purl.org/dc/dcmitype/StillImage" />
        <dc:title></dc:title>
      </cc:Work>
    </rdf:RDF>
  </metadata>
  <defs
     id="defs24" />
  <sodipodi:namedview
     inkscape:current-layer="svg20"
     inkscape:window-maximized="1"
     inkscape:window-y="-8"
     inkscape:window-x="-8"
     inkscape:cy="24.059098"
     inkscape:cx="164.27954"
     inkscape:zoom="1.7456699"
     inkscape:document-rotation="0"
     showgrid="false"
     id="namedview22"
     inkscape:window-height="706"
     inkscape:window-width="1366"
     inkscape:pageshadow="2"
     inkscape:pageopacity="0"
     guidetolerance="10"
     gridtolerance="10"
     objecttolerance="10"
     borderopacity="1"
     bordercolor="#666666"
     pagecolor="#ffffff" />
  <g
     transform="matrix(2.3949756,0,0,3.3754008,31.078861,-1.5757454)"
     id="g871">
    <g
       id="g853">
      <path
         id="path2"
         fill="#000000"
         d="m 9.42307,1.52885 v 6.63461 c 0,2.21154 -0.96153,3.12504 -3.26923,3.12504 -2.30769,0 -3.26923,-0.9135 -3.26923,-3.12504 V 1.24039 H 0.673075 c -0.144231,0 -0.288462,0.14423 -0.288462,0.28846 v 6.73077 c 0,3.70188 2.355767,4.99998 5.769227,4.99998 3.41347,0 5.76926,-1.2981 5.76926,-4.99998 V 1.24039 H 9.71154 c -0.14423,0 -0.28847,0.09615 -0.28847,0.28846 z" />
      <path
         id="path4"
         fill="#000000"
         d="m 41.5865,3.16346 c 0.1924,0 0.2885,-0.04807 0.3366,-0.1923 l 0.625,-1.58654 c 0.0481,-0.09616 0,-0.14423 -0.0962,-0.14423 h -8.9423 c -0.8173,0 -1.1538,0.24038 -1.1538,0.8173 V 12.3462 c 0,0.4807 0.2404,0.7211 0.8654,0.7211 h 8.3173 c 0.1923,0 0.2884,-0.0481 0.3365,-0.1923 L 42.5,11.2885 c 0.0481,-0.0962 0,-0.1443 -0.0961,-0.1443 H 34.8077 V 9.02885 c 0,-0.72116 0.3846,-1.05769 1.4904,-1.05769 h 3.3173 c 0.1923,0 0.2885,-0.04808 0.3365,-0.19231 l 0.625,-1.53846 c 0.0481,-0.09616 0,-0.14423 -0.0961,-0.14423 h -5.625 V 3.11539 h 6.7307 z" />
      <path
         id="path6"
         fill="#000000"
         d="M 25.8654,6.81732 C 26.8269,6.28845 27.2115,5.375 27.2115,4.22116 27.2115,1.625 25.0961,1.24039 22.8846,1.24039 h -5.0481 c -0.8173,0 -1.1538,0.24038 -1.1538,0.81732 V 12.3462 c 0,0.4807 0.2404,0.7211 0.8654,0.7211 H 23.75 c 2.3557,0 3.9904,-0.9135 3.9904,-3.26923 0.0481,-1.4423 -0.5289,-2.64423 -1.875,-2.98075 z M 19.1827,3.11539 h 3.8942 c 1.2981,0 1.6827,0.48077 1.6827,1.49038 0,1.00962 -0.3846,1.49039 -1.6827,1.49039 h -3.8942 z m 0,8.02881 h 4.375 c 1.3942,0 1.7788,-0.4807 1.7788,-1.58652 0,-1.10578 -0.3846,-1.63461 -1.7788,-1.63461 h -2.8846 c -1.1058,0 -1.4904,0.33654 -1.4904,1.05767 z"
         clip-rule="evenodd"
         fill-rule="evenodd" />
      <path
         id="path8"
         fill="#000000"
         d="m 55.3846,8.30771 2.6442,4.56729 c 0.0481,0.0481 0.0481,0.1923 -0.048,0.1923 h -2.2596 c -0.1924,0 -0.2404,-0.0481 -0.3366,-0.1923 L 52.9808,8.54807 h -2.1635 c -1.1058,0 -1.4904,0.33654 -1.4904,1.0577 v 3.46153 h -2.1634 c -0.1443,0 -0.2885,-0.1442 -0.2885,-0.2885 V 2.05771 c 0,-0.57694 0.3365,-0.81732 1.1538,-0.81732 h 5.0481 c 2.9327,0 4.7116,0.76922 4.7116,3.65384 0,2.21154 -1.1058,3.07693 -2.4039,3.41348 z M 49.2788,6.72116 h 4.1347 c 1.5384,0 1.875,-0.57693 1.875,-1.82693 0,-1.20191 -0.3366,-1.77884 -1.875,-1.77884 h -4.1347 z"
         clip-rule="evenodd"
         fill-rule="evenodd" />
    </g>
    <g
       id="g859">
      <path
         id="path10"
         stroke-width="0.25"
         stroke="#57ad56"
         fill="#57ad56"
         d="m 76.4423,12.0096 -0.0481,1.0577 h -8.75 V 1.24039 h 8.4135 l 0.0481,1.10577 h -7.2597 v 4.08653 h 6.25 v 0.96154 h -6.25 v 4.61537 z" />
      <path
         style="stroke:#57ad56;stroke-width:0.3;stroke-miterlimit:4;stroke-dasharray:none;stroke-opacity:1"
         id="path12"
         fill="#57ad56"
         d="m 84.05484,10.204334 h 6.9712 l 1.3461,3.07691 h 1.3462 L 88.28564,1.4543341 h -1.3942 l -5.4808,11.8269099 h 1.298 z m 0.4327,-1.0096199 2.5481,-5.72113 0.4808,-1.20193 h 0.048 l 0.4808,1.20193 2.5,5.72113 z"
         clip-rule="evenodd"
         fill-rule="evenodd" />
      <path
         style="opacity:0.996"
         id="path16"
         stroke-width="0.25"
         stroke="#57ad56"
         fill="#57ad56"
         d="M 102.019,2.34616 V 13.0673 h -1.202 V 2.34616 H 96.3942 L 96.4423,1.24039 H 106.49 v 1.10577 z" />
      <path
         id="path18"
         stroke-width="0.25"
         stroke="#57ad56"
         fill="#57ad56"
         d="m 115.048,13.3077 c -1.635,0 -2.933,-0.3846 -3.99,-1.0096 l 0.192,-1.0577 c 1.106,0.625 2.356,1.0096 3.846,1.0096 2.212,0 3.366,-1.0096 3.366,-2.45192 0,-3.125 -7.212,-1.49039 -7.212,-5.52885 C 111.25,2.53846 112.548,1 115.577,1 c 1.394,0 2.644,0.24038 3.654,0.72115 l -0.193,1.00962 c -1.105,-0.43269 -2.163,-0.67308 -3.413,-0.67308 -2.356,0 -3.221,1.05769 -3.221,2.11539 0,2.98077 7.211,1.29807 7.211,5.52884 -0.048,2.11538 -1.586,3.60578 -4.567,3.60578 z" />
    </g>
  </g>
</svg>
