<?xml version="1.0" encoding="UTF-8" standalone="no"?>
<svg
   xmlns:dc="http://purl.org/dc/elements/1.1/"
   xmlns:cc="http://creativecommons.org/ns#"
   xmlns:rdf="http://www.w3.org/1999/02/22-rdf-syntax-ns#"
   xmlns:svg="http://www.w3.org/2000/svg"
   xmlns="http://www.w3.org/2000/svg"
   xmlns:xlink="http://www.w3.org/1999/xlink"
   xmlns:sodipodi="http://sodipodi.sourceforge.net/DTD/sodipodi-0.dtd"
   xmlns:inkscape="http://www.inkscape.org/namespaces/inkscape"
   inkscape:export-ydpi="95"
   inkscape:export-xdpi="95"
   inkscape:export-filename="F:\OpenServer\domains\gronportfolio\image\logoR.png"
   width="200"
   height="200"
   viewBox="0 0 52.916666 52.916668"
   version="1.1"
   id="svg8"
   sodipodi:docname="logoR.svg"
   inkscape:version="1.0 (4035a4fb49, 2020-05-01)">
  <defs
     id="defs2">
    <rect
       x="-42.656216"
       y="-26.566589"
       width="22.263552"
       height="14.780004"
       id="rect52" />
    <rect
       x="-44.340012"
       y="-28.811653"
       width="25.444057"
       height="14.218738"
       id="rect46" />
    <rect
       x="-45.462543"
       y="-21.515196"
       width="32.740517"
       height="12.909118"
       id="rect40" />
    <rect
       id="rect2496"
       height="12.315152"
       width="75.917458"
       y="-26.968622"
       x="-11.068048" />
    <rect
       id="rect2490"
       height="10.600384"
       width="100.85953"
       y="-23.850863"
       x="-11.068048" />
    <filter
       height="1.000825"
       y="-0.00041247951"
       width="1.0000457"
       x="-2.2793616e-05"
       id="filter2520"
       style="color-interpolation-filters:sRGB"
       inkscape:collect="always">
      <feGaussianBlur
         id="feGaussianBlur2522"
         stdDeviation="0.00068635753"
         inkscape:collect="always" />
    </filter>
    <filter
       inkscape:collect="always"
       style="color-interpolation-filters:sRGB"
       id="filter908"
       x="-8.535145e-05"
       width="1.0001707"
       y="-2.8918417e-05"
       height="1.0000578">
      <feGaussianBlur
         inkscape:collect="always"
         stdDeviation="0.0006853057"
         id="feGaussianBlur910" />
    </filter>
  </defs>
  <sodipodi:namedview
     inkscape:snap-nodes="false"
     id="base"
     pagecolor="#ffffff"
     bordercolor="#666666"
     borderopacity="1.0"
     inkscape:pageopacity="0.0"
     inkscape:pageshadow="2"
     inkscape:zoom="1.0000001"
     inkscape:cx="96.651637"
     inkscape:cy="121.09344"
     inkscape:document-units="mm"
     inkscape:current-layer="layer1"
     inkscape:document-rotation="0"
     showgrid="false"
     units="px"
     inkscape:snap-page="true"
     inkscape:window-width="1350"
     inkscape:window-height="730"
     inkscape:window-x="0"
     inkscape:window-y="0"
     inkscape:window-maximized="0" />
  <metadata
     id="metadata5">
    <rdf:RDF>
      <cc:Work
         rdf:about="">
        <dc:format>image/svg+xml</dc:format>
        <dc:type
           rdf:resource="http://purl.org/dc/dcmitype/StillImage" />
        <dc:title></dc:title>
      </cc:Work>
    </rdf:RDF>
  </metadata>
  <g
     inkscape:label="Слой 1"
     inkscape:groupmode="layer"
     id="layer1"
     style="display:inline">
    <text
       style="font-size:4.23333px;line-height:1.25;font-family:sans-serif;white-space:pre;shape-inside:url(#rect2490);opacity:0.996;"
       id="text2488"
       xml:space="preserve" />
    <text
       xml:space="preserve"
       id="text38"
       style="font-size:4.23333px;line-height:1.25;font-family:sans-serif;white-space:pre;shape-inside:url(#rect40);" />
    <g
       transform="matrix(0.77003082,0,0,0.75661482,0.54100562,0.7232807)"
       id="g888">
      <g
         id="g874">
        <path
           d="M 33.406547,3.6862366 C 26.701168,3.7512597 19.892818,6.2241668 14.713106,10.469921 11.209112,13.310754 8.3868011,16.896825 6.4610874,20.917951 3.0250855,28.03268 2.5281701,36.34569 5.0708776,43.815526 7.185131,50.152855 11.569303,55.817732 17.154555,59.459919 c 6.696204,4.444757 15.169947,6.021178 22.945209,4.350917 7.348517,-1.508402 14.05718,-5.899379 18.392676,-11.949369 4.684777,-6.447348 6.629969,-14.679214 5.387321,-22.477696 C 62.699165,21.635216 58.366017,14.415496 52.054891,9.73622 46.715211,5.7215976 40.041059,3.5720924 33.406547,3.6862366 Z"
           style="opacity:0.997;fill:#dade1e;fill-opacity:1;fill-rule:evenodd;stroke:#10483d;stroke-width:6.829;stroke-linecap:round;stroke-linejoin:round;stroke-miterlimit:4;stroke-dasharray:none;stroke-opacity:1;paint-order:markers fill stroke"
           id="path2484" />
        <text
           transform="matrix(0.86016571,-0.59203615,0.59203615,0.86016571,-15.235762,24.015172)"
           y="-0.11963733"
           x="-0.082612596"
           style="font-style:normal;font-variant:normal;font-weight:bold;font-stretch:normal;font-size:4.30745px;line-height:1.25;font-family:Aharoni;-inkscape-font-specification:'Aharoni, Bold';font-variant-ligatures:normal;font-variant-caps:normal;font-variant-numeric:normal;font-variant-east-asian:normal;white-space:pre;fill:#dade1e;fill-opacity:1;stroke-width:1.03768;filter:url(#filter2520)"
           id="text2494"
           xml:space="preserve"><textPath
             style="font-style:normal;font-variant:normal;font-weight:bold;font-stretch:normal;font-size:4.30745px;font-family:Aharoni;-inkscape-font-specification:'Aharoni, Bold';font-variant-ligatures:normal;font-variant-caps:normal;font-variant-numeric:normal;font-variant-east-asian:normal;fill:#dade1e;fill-opacity:1;stroke-width:1.03768"
             id="textPath2529"
             xlink:href="#path2484">Определение  среднего  диаметра  внутренней резьбы.  Метод Аксенова Е.А.</textPath></text>
      </g>
      <g
         id="g869"
         transform="translate(0.26458354,0.79374992)">
        <path
           d="M 57.039179,35.129864 A 23.39036,23.39036 0 0 1 33.690589,57.123012 23.39036,23.39036 0 0 1 10.30023,33.732652 23.39036,23.39036 0 0 1 33.690589,10.342293 23.39036,23.39036 0 0 1 52.613417,19.983635"
           style="opacity:0.996;fill:none;fill-opacity:0;fill-rule:evenodd;stroke:#10483d;stroke-width:1.3;stroke-linecap:round;stroke-linejoin:round;stroke-miterlimit:4;stroke-dasharray:none;stroke-opacity:1;paint-order:markers fill stroke"
           id="path2596" />
        <circle
           r="18.172684"
           style="opacity:0.997;fill:#f7f5c1;fill-opacity:0;fill-rule:evenodd;stroke:#10483d;stroke-width:2.5;stroke-linecap:round;stroke-linejoin:round;stroke-miterlimit:4;stroke-dasharray:none;stroke-opacity:1;paint-order:markers fill stroke"
           id="path884"
           cx="33.669704"
           cy="33.732651" />
        <g
           inkscape:transform-center-y="1.9410486"
           inkscape:transform-center-x="-26.848775"
           id="g912"
           style="opacity:0.992;stroke-width:2.19873;stroke-miterlimit:4;stroke-dasharray:none;filter:url(#filter908)"
           transform="matrix(2.2295536,-0.58716517,0.57072273,0.88295057,88.014627,-22.123263)">
          <path
             sodipodi:nodetypes="csssscscccccscccsscc"
             style="color:#000000;font-style:normal;font-variant:normal;font-weight:normal;font-stretch:normal;font-size:medium;line-height:normal;font-family:sans-serif;font-variant-ligatures:normal;font-variant-position:normal;font-variant-caps:normal;font-variant-numeric:normal;font-variant-alternates:normal;font-variant-east-asian:normal;font-feature-settings:normal;font-variation-settings:normal;text-indent:0;text-align:start;text-decoration:none;text-decoration-line:none;text-decoration-style:solid;text-decoration-color:#000000;letter-spacing:normal;word-spacing:normal;text-transform:none;writing-mode:lr-tb;direction:ltr;text-orientation:mixed;dominant-baseline:auto;baseline-shift:baseline;text-anchor:start;white-space:normal;shape-padding:0;shape-margin:0;inline-size:0;clip-rule:nonzero;display:inline;overflow:visible;visibility:visible;isolation:auto;mix-blend-mode:normal;color-interpolation:sRGB;color-interpolation-filters:linearRGB;solid-color:#000000;solid-opacity:1;vector-effect:none;fill:#10483d;fill-opacity:1;fill-rule:nonzero;stroke:none;stroke-width:2.19873;stroke-linecap:butt;stroke-linejoin:miter;stroke-miterlimit:4;stroke-dasharray:none;stroke-dashoffset:0;stroke-opacity:1;color-rendering:auto;image-rendering:auto;shape-rendering:auto;text-rendering:auto;enable-background:accumulate;stop-color:#000000;stop-opacity:1"
             d="m -28.753305,20.081304 c -6.458413,19.185287 -9.785998,29.176195 -11.431732,34.002629 -0.822867,2.413218 -1.242991,3.626296 -1.455576,4.234526 -0.106293,0.304115 -0.159907,0.457715 -0.18641,0.530142 -0.01325,0.03621 -0.01992,0.0531 -0.01984,0.05289 4.3e-5,-1.09e-4 0.0011,-0.0034 0.0079,-0.01851 0.0034,-0.0076 0.01862,-0.03987 0.01851,-0.03965 -5.5e-5,1.03e-4 0.02778,-0.04631 0.02776,-0.04627 l 0.02115,-0.03172 -0.08185,0.177438 1.109086,0.697756 0.03339,0.0436 c 2e-5,-3.4e-5 0.08554,-0.204799 0.0856,-0.204902 1.11e-4,-2.07e-4 0.01712,-0.03333 0.02115,-0.0423 0.0081,-0.01795 0.01174,-0.02661 0.01586,-0.03702 0.0083,-0.0208 0.01629,-0.04374 0.03173,-0.08594 0.03089,-0.08439 0.08693,-0.24134 0.19434,-0.548651 0.214821,-0.614622 0.634791,-1.830231 1.458222,-4.245101 1.646861,-4.829741 4.908286,-14.454747 11.366982,-33.640876 z"
             id="path916" />
        </g>
        <g
           transform="matrix(0.86799399,0,0,0.81146077,82.189375,5.6134484)"
           id="g944">
          <path
             id="rect104"
             style="opacity:0.992;fill:#10483d;fill-rule:evenodd;stroke:#10483d;stroke-width:0.729265;stroke-linecap:round;stroke-linejoin:round;paint-order:markers fill stroke"
             d="m -57.974108,26.828114 6.466199,-0.05622 -3.304721,21.608572 -6.559744,0.05622 z"
             sodipodi:nodetypes="ccccc" />
          <path
             sodipodi:nodetypes="cccccccsc"
             id="rect107"
             style="opacity:0.992;fill:#10483d;fill-rule:evenodd;stroke:#10483d;stroke-width:1.92533;stroke-linecap:round;stroke-linejoin:round;paint-order:markers fill stroke"
             d="m -51.528951,27.350308 -0.251663,1.670182 h 7.023343 l -1.439704,6.369121 -6.544304,5.16e-4 -0.336413,2.231388 10.196277,-0.001 c 0,0 2.589725,-9.95799 1.852083,-10.336321 -0.679458,-0.348489 -10.499619,0.06611 -10.499619,0.06611 z" />
        </g>
      </g>
    </g>
  </g>
</svg>
