<?xml version="1.0" encoding="UTF-8" standalone="no"?>
<svg
   xmlns:dc="http://purl.org/dc/elements/1.1/"
   xmlns:cc="http://creativecommons.org/ns#"
   xmlns:rdf="http://www.w3.org/1999/02/22-rdf-syntax-ns#"
   xmlns:svg="http://www.w3.org/2000/svg"
   xmlns="http://www.w3.org/2000/svg"
   xmlns:sodipodi="http://sodipodi.sourceforge.net/DTD/sodipodi-0.dtd"
   xmlns:inkscape="http://www.inkscape.org/namespaces/inkscape"
   height="100"
   width="100"
   viewBox="-116.80905 -194.68125 84.362093 146.01094"
   version="1.1"
   id="svg2174"
   sodipodi:docname="whatsApp.svg"
   inkscape:version="1.0 (4035a4fb49, 2020-05-01)">
  <metadata
     id="metadata2178">
    <rdf:RDF>
      <cc:Work
         rdf:about="">
        <dc:format>image/svg+xml</dc:format>
        <dc:type
           rdf:resource="http://purl.org/dc/dcmitype/StillImage" />
        <dc:title></dc:title>
      </cc:Work>
    </rdf:RDF>
  </metadata>
  <sodipodi:namedview
     inkscape:document-rotation="0"
     pagecolor="#ffffff"
     bordercolor="#666666"
     borderopacity="1"
     objecttolerance="10"
     gridtolerance="10"
     guidetolerance="10"
     inkscape:pageopacity="0"
     inkscape:pageshadow="2"
     inkscape:window-width="1366"
     inkscape:window-height="706"
     id="namedview2176"
     showgrid="false"
     inkscape:zoom="3.9315137"
     inkscape:cx="29.427785"
     inkscape:cy="63.63102"
     inkscape:window-x="-8"
     inkscape:window-y="-8"
     inkscape:window-maximized="1"
     inkscape:current-layer="svg2174" />
  <defs
     id="defs2168">
    <linearGradient
       x1="0"
       y1="0"
       x2="1"
       y2="0"
       gradientUnits="userSpaceOnUse"
       gradientTransform="matrix(0,-438.03338,438.03244,0,11.133373,243.1159)"
       spreadMethod="pad"
       id="a">
      <stop
         offset="0"
         stop-color="#25cf43"
         id="stop2163" />
      <stop
         offset="1"
         stop-color="#61fd7d"
         id="stop2165" />
    </linearGradient>
  </defs>
  <g
     transform="matrix(0.33333335,0,0,0.33333335,-78.713393,-129.40587)"
     id="g2743">
    <path
       style="fill:url(#a);stroke-width:0.749858;stroke-miterlimit:4;stroke-dasharray:none"
       id="path2170"
       fill="url(#a)"
       d="m -108.30306,-194.70168 c -9.76877,0.34725 -22.35897,1.1115 -28.08145,2.2665 -8.73523,1.764 -16.98446,4.43849 -23.84469,7.935 -8.06023,4.10775 -15.28421,9.34874 -21.52195,15.57674 -6.25198,6.23999 -11.51397,13.47074 -15.63821,21.54299 -3.48674,6.8235 -6.15973,15.02249 -7.93123,23.70824 -1.17824,5.78025 -1.95749,18.46424 -2.31074,28.295992 a 393.90275,393.9036 0 0 0 -0.21675,11.6175 l -0.0345,215.681908 c 0,2.38875 0.0728,7.59075 0.21525,11.61375 0.34725,9.76799 1.1115,22.35824 2.26725,28.08074 1.76324,8.73449 4.43848,16.98449 7.93422,23.84474 4.1085,8.06099 9.34873,15.28349 15.57672,21.52199 6.23998,6.25124 13.47146,11.51325 21.54294,15.63824 6.82424,3.486 15.02321,6.15975 23.70819,7.93125 5.78024,1.17825 18.46491,1.9575 28.29668,2.31 4.01698,0.144 9.218193,0.2175 11.616693,0.2175 l 215.681507,0.0345 c 2.3895,0 7.5915,-0.072 11.6129,-0.21525 9.7688,-0.348 22.3598,-1.1115 28.0814,-2.26725 8.7353,-1.764 16.9853,-4.43925 23.8448,-7.93425 8.0602,-4.10849 15.2842,-9.34949 21.5219,-15.57674 6.2512,-6.24075 11.5132,-13.47074 15.6382,-21.54299 3.486,-6.82425 6.1605,-15.02249 7.9313,-23.70824 1.179,-5.78025 1.9575,-18.46574 2.3107,-28.29674 0.144,-4.01775 0.2167,-9.21825 0.2167,-11.61675 l 0.035,-215.681908 c 0,-2.3895 -0.073,-7.5915 -0.216,-11.61375 -0.348,-9.767992 -1.1115,-22.358242 -2.2673,-28.080742 -1.7633,-8.73525 -4.4385,-16.98449 -7.9342,-23.84474 -4.1077,-8.06099 -9.3495,-15.28424 -15.576,-21.52274 -6.2407,-6.25049 -13.4722,-11.51324 -21.5437,-15.63749 -6.8242,-3.48675 -15.0224,-6.1605 -23.7082,-7.93125 -5.7802,-1.17825 -18.4649,-1.9575 -28.2959,-2.31 -4.0185,-0.14475 -9.219,-0.2175 -11.6175,-0.2175 l -215.681457,-0.0345 a 393.614,393.61485 0 0 0 -11.612923,0.21525" />
    <path
       style="fill:#ffffff;fill-opacity:1;stroke-width:0.653292"
       id="path2172"
       fill-rule="evenodd"
       fill="#fff"
       d="m 97.484701,54.400113 c -4.541399,-2.2618 -26.868599,-13.1963 -31.032199,-14.7039 -4.1623,-1.5084 -7.1893,-2.2625 -10.2169,2.2618 -3.0276,4.525 -11.7306,14.70461 -14.3804,17.72131 -2.6485,3.016 -5.297,3.3941 -9.8384,1.1309 -4.5414,-2.2618 -19.1739,-7.03451 -36.5197996,-22.43271 -13.5011004,-11.9832 -22.6153004,-26.785 -25.2644004,-31.3093002 -2.6485,-4.5250004 -0.2816,-6.97070047 1.9924,-9.2241005 2.0422,-2.0238999 4.5407,-5.2778996 6.8114,-7.9177993 2.2707,-2.6399 3.0276,-4.5243 4.5414,-7.5403 1.5138,-3.0167 0.7569,-5.656 -0.3797,-7.9185 -1.1341,-2.2618 -10.2162,-24.50751 -14.0007,-33.55681 -3.6863,-8.8128 -7.4302,-7.6199 -10.2175,-7.7587 -2.6465,-0.131 -5.6767,-0.159 -8.7043,-0.159 -3.0276,0 -7.9468,1.1316 -12.1104,5.6553 -4.16228,4.525 -15.89358,15.4601 -15.89358,37.70441 0,22.2456993 16.27268,43.7372 18.54268,46.7538 2.2714,3.0167 32.0235,48.66761 77.579,68.24401 10.8349,4.6567 19.2943,7.437398 25.8891,9.521297 10.8794,3.439 20.7794,2.9541 28.6044,1.7899 8.7246,-1.2971 26.868599,-10.933797 30.653098,-21.490797 3.7832,-10.557 3.7832,-19.6071 2.6485,-21.4915 -1.1347,-1.8851 -4.1623,-3.0167 -8.703699,-5.27921 M 14.622502,166.99673 h -0.061 c -27.106899,-0.01 -53.6934,-7.2568 -76.8869,-20.9551 l -5.51628,-3.2591 -57.174702,14.9269 15.2611,-55.47721 -3.592,-5.687897 c -15.1217,-23.9372 -23.1077,-51.60341 -23.0966,-80.01021 0.033,-82.89191 67.800102,-150.330223 151.126482,-150.330223 40.3488,0.02 78.2776,15.67461 106.798898,44.091112 28.5212,28.417201 44.2197,66.190111 44.2039,106.361011 C 165.6514,99.553821 97.885301,166.99673 14.622402,166.99673 M 143.1893,-111.2988 c -34.3145,-34.18981 -79.948498,-53.02771 -128.568198,-53.04661 -100.17788,0 -181.710922,81.137213 -181.751512,180.867823 -0.0131,31.8797 8.35602,62.99941 24.26003,90.428407 l -25.78431,93.73111 96.348912,-25.1521 c 26.54648,14.41 56.43478,22.0032 86.85358,22.0162 h 0.076 c 100.168098,0 181.708298,-81.14761 181.748898,-180.879517 0.018,-48.3306 -18.8681,-93.77621 -53.1833,-127.965313" />
  </g>
</svg>
